<?xml version="1.0" encoding="utf-8"?>
<!-- Generator: Adobe Illustrator 24.0.1, SVG Export Plug-In . SVG Version: 6.00 Build 0)  -->
<svg version="1.0" id="Layer_1" xmlns="http://www.w3.org/2000/svg" xmlns:xlink="http://www.w3.org/1999/xlink" x="0px" y="0px"
	 viewBox="0 0 40 40" style="enable-background:new 0 0 40 40;" xml:space="preserve">
<g>
	<path d="M39.1,36.7l-9.7-9.7c2.3-2.8,3.6-6.4,3.6-10.3c0-9-7.3-16.3-16.3-16.3S0.4,7.6,0.4,16.6c0,9,7.3,16.3,16.3,16.3
		c3.8,0,7.4-1.3,10.2-3.6l9.7,9.7c0.3,0.3,0.8,0.5,1.3,0.5s0.9-0.2,1.3-0.5C39.8,38.5,39.8,37.3,39.1,36.7z M3.9,16.6
		c0-7,5.7-12.8,12.8-12.8c7,0,12.8,5.7,12.8,12.8s-5.7,12.8-12.8,12.8C9.7,29.4,3.9,23.7,3.9,16.6z"/>
	<path d="M23.1,21.9c-1.7-1.4-3.9-2.1-6.2-2.1c-2.3,0-4.5,0.8-6.2,2.1c-0.8,0.6-0.9,1.7-0.3,2.5c0.4,0.4,0.9,0.7,1.4,0.7
		c0.4,0,0.8-0.1,1.1-0.4c1.1-0.9,2.5-1.3,4-1.3c1.5,0,2.9,0.5,4,1.3c0.8,0.6,1.9,0.5,2.5-0.3C24,23.6,23.9,22.5,23.1,21.9z"/>
	<circle cx="11" cy="14.4" r="2.4"/>
	<circle cx="22.5" cy="14.4" r="2.4"/>
</g>
</svg>
